<?xml version="1.0" standalone="no"?>
<!DOCTYPE svg PUBLIC "-//W3C//DTD SVG 20010904//EN"
 "http://www.w3.org/TR/2001/REC-SVG-20010904/DTD/svg10.dtd">
<svg version="1.0" xmlns="http://www.w3.org/2000/svg"
 width="138.000000pt" height="107.000000pt" viewBox="0 0 138.000000 107.000000"
 preserveAspectRatio="xMidYMid meet">

<g transform="translate(0.000000,107.000000) scale(0.100000,-0.100000)"
fill="#000000" stroke="none">
<path d="M727 989 c-19 -41 -71 -154 -116 -252 -46 -98 -80 -181 -78 -184 3
-3 38 -2 77 2 64 6 72 10 85 35 8 16 23 35 34 42 10 7 20 22 22 32 2 11 30 32
68 52 36 19 69 38 73 42 7 7 -110 283 -128 301 -2 2 -19 -30 -37 -70z"/>
<path d="M935 729 c-22 -5 -45 -15 -50 -23 -6 -7 -21 -16 -35 -21 -14 -4 -36
-14 -50 -23 -23 -14 -23 -16 -5 -22 18 -6 17 -9 -11 -23 -17 -9 -36 -23 -43
-31 -12 -14 -10 -16 8 -16 11 0 21 -5 21 -10 0 -19 -55 -32 -196 -45 -155 -14
-177 -22 -264 -93 -72 -58 -106 -72 -182 -72 -72 0 -99 -14 -118 -60 -14 -34
-8 -49 14 -31 11 9 15 9 19 -1 2 -8 16 0 39 25 19 20 42 37 52 37 24 0 112 38
165 72 25 15 47 26 49 23 3 -2 -3 -26 -13 -52 -20 -53 -143 -188 -232 -255
-56 -41 -72 -75 -30 -63 42 13 106 55 164 108 83 76 102 87 151 87 46 0 79 14
156 67 55 38 89 41 172 17 45 -13 63 -13 111 -4 81 17 106 30 92 47 -6 7 -17
13 -25 13 -14 0 -29 18 -21 26 2 3 28 -4 56 -16 65 -25 102 -25 186 1 76 23
118 20 159 -12 16 -12 37 -19 53 -17 l28 3 -42 31 c-27 20 -64 35 -105 43
-137 26 -228 63 -141 58 36 -2 38 0 41 31 4 36 5 37 33 20 17 -11 22 -10 35 6
21 29 18 34 -21 33 -42 -1 -52 7 -34 29 9 11 23 14 45 11 23 -4 34 -1 38 9 6
15 -29 34 -60 34 -8 0 -17 7 -20 15 -4 8 -14 15 -24 15 -9 0 -27 9 -40 20 -25
21 -60 24 -125 9z"/>
<path d="M1005 330 c-27 -4 -76 -17 -107 -29 -68 -25 -152 -27 -221 -6 -56 17
-75 11 -161 -50 -30 -22 -60 -35 -80 -35 -63 0 -72 -8 -115 -100 -23 -49 -41
-93 -41 -99 0 -12 951 -17 963 -5 6 6 -8 42 -78 189 -26 55 -51 110 -56 123
-9 24 -17 25 -104 12z"/>
</g>
</svg>
